# Blender v2.79 (sub 0) OBJ File: ''
# www.blender.org
o Cube.001
v 0.959217 9.859324 -1.589045
v 2.060763 9.181832 0.860901
v 1.838441 9.491806 0.981272
v 2.367543 9.428895 0.791288
v 1.265997 10.106387 -1.658659
v 2.145221 9.738870 0.911658
v 1.181539 9.549350 -1.709415
v 1.488319 9.796413 -1.779028
v 2.889900 10.308897 -0.510074
v 0.659182 8.669349 -0.408054
v 2.761607 10.362524 -0.885127
v 2.667578 10.618870 -0.389703
v 0.436860 8.979323 -0.287683
v 0.565153 8.925695 0.087370
v 0.787476 8.615722 -0.033001
v 2.539284 10.672498 -0.764756
vt 1.000000 0.000000
vt 0.000000 1.000000
vt 0.000000 0.000000
vt 1.000000 0.000000
vt 0.000000 1.000000
vt 0.000000 0.000000
vt 1.000000 0.000000
vt 0.000000 1.000000
vt 1.000000 0.000000
vt 0.000000 1.000000
vt 0.000000 0.000000
vt 0.000000 0.000000
vt 1.000000 1.000000
vt 1.000000 0.000000
vt 0.000000 1.000000
vt 1.000000 1.000000
vt 1.000000 1.000000
vt 1.000000 1.000000
vt 1.000000 0.000000
vt 1.000000 1.000000
vt 0.000000 0.000000
vt 0.000000 0.000000
vt 0.000000 0.000000
vt 0.000000 0.000000
vt 0.000000 0.000000
vt 0.000000 0.000000
vt 0.000000 0.000000
vt 0.000000 0.000000
vn -0.7669 -0.6177 0.1740
vn 0.7669 0.6177 -0.1740
vn -0.5558 0.7749 0.3009
vn -0.3207 0.1341 -0.9376
vn 0.5558 -0.7749 -0.3009
vn 0.3207 -0.1341 0.9376
vn -0.7670 -0.6177 0.1740
s 1
f 1/1/1 2/2/1 3/3/1
f 4/4/2 5/5/2 6/6/2
f 6/7/3 1/8/3 3/3/3
f 5/9/4 7/10/4 1/11/4
f 7/12/5 4/13/5 2/2/5
f 3/14/6 4/15/6 6/6/6
f 1/1/1 7/16/1 2/2/1
f 4/4/2 8/17/2 5/5/2
f 6/7/3 5/18/3 1/8/3
f 5/9/4 8/17/4 7/10/4
f 7/12/5 8/19/5 4/13/5
f 3/14/6 2/20/6 4/15/6
f 9/21/5 10/22/5 11/23/5
f 12/24/3 13/25/3 14/26/3
f 12/24/6 15/27/6 9/21/6
f 14/26/1 10/22/1 15/27/1
f 10/22/4 16/28/4 11/23/4
f 12/24/2 11/23/2 16/28/2
f 9/21/5 15/27/5 10/22/5
f 12/24/3 16/28/3 13/25/3
f 12/24/6 14/26/6 15/27/6
f 14/26/1 13/25/7 10/22/1
f 10/22/4 13/25/4 16/28/4
f 12/24/2 9/21/2 11/23/2
